<svg xmlns="http://www.w3.org/2000/svg" xmlns:xlink="http://www.w3.org/1999/xlink" width="1000" zoomAndPan="magnify" viewBox="0 0 750 749.999995" height="1000" preserveAspectRatio="xMidYMid meet" version="1.0"><defs><g/></defs><rect x="-75" width="900" fill="#ffffff" y="-74.999999" height="899.999994" fill-opacity="1"/><rect x="-75" width="900" fill="#1f7a6b" y="-74.999999" height="899.999994" fill-opacity="1"/><g fill="#f6f9f8" fill-opacity="1"><g transform="translate(186.234368, 598.611845)"><g><path d="M 221.742188 -420.875 C 200.078125 -420.875 182.550781 -415.121094 169.160156 -403.621094 C 156.476562 -392.726562 150.132812 -378.164062 150.132812 -359.941406 C 150.132812 -349.988281 153.09375 -340.324219 159.011719 -330.953125 C 165.195312 -321.164062 174.3125 -312.722656 186.363281 -305.636719 L 266.085938 -259.183594 C 295.214844 -242.34375 316.027344 -223.433594 328.519531 -202.453125 C 341.09375 -181.34375 347.378906 -158.25 347.378906 -133.171875 C 347.378906 -106.996094 339.8125 -82.441406 324.679688 -59.507812 C 309.683594 -36.777344 287.792969 -18.503906 259.007812 -4.6875 C 230.683594 8.90625 196.277344 15.703125 155.785156 15.703125 C 125.257812 15.703125 98.257812 10.917969 74.789062 1.351562 C 50.640625 -8.496094 31.738281 -22.164062 18.089844 -39.644531 C 3.933594 -57.773438 -3.140625 -78.269531 -3.140625 -101.136719 C -3.140625 -128.207031 3.910156 -148.523438 18.011719 -162.082031 C 31.9375 -175.472656 48.550781 -182.167969 67.84375 -182.167969 C 80.28125 -182.167969 90.40625 -180.289062 98.210938 -176.53125 C 106.105469 -172.730469 111.859375 -168.484375 115.46875 -163.789062 L 126.351562 -149.640625 L 112.785156 -133.679688 C 110.085938 -130.5 107.140625 -125.632812 103.949219 -119.078125 C 101.234375 -113.5 99.878906 -106.472656 99.878906 -97.996094 C 99.878906 -83.800781 104.644531 -72.398438 114.175781 -63.792969 C 124.167969 -54.765625 139.292969 -50.253906 159.554688 -50.253906 C 183.980469 -50.253906 202.863281 -56.324219 216.199219 -68.464844 C 229.109375 -80.214844 235.5625 -94.035156 235.5625 -109.929688 C 235.5625 -122.449219 232.160156 -133.410156 225.355469 -142.804688 C 217.914062 -153.082031 204.730469 -163.519531 185.804688 -174.121094 L 118.484375 -212.5 C 89.707031 -228.941406 69.171875 -247.449219 56.875 -268.023438 C 44.503906 -288.722656 38.316406 -311.824219 38.316406 -337.328125 C 38.316406 -363.839844 45.632812 -388.539062 60.261719 -411.429688 C 74.792969 -434.15625 95.796875 -452.449219 123.273438 -466.304688 C 150.414062 -479.988281 183.449219 -486.832031 222.371094 -486.832031 C 254.175781 -486.832031 282.234375 -481.832031 306.550781 -471.832031 C 331.535156 -461.558594 351.058594 -447.363281 365.121094 -429.246094 C 379.675781 -410.5 386.953125 -388.863281 386.953125 -364.339844 C 386.953125 -338.605469 380.199219 -318.082031 366.699219 -302.757812 C 352.683594 -286.859375 333.679688 -278.90625 309.6875 -278.90625 C 290.707031 -278.90625 276.597656 -282.910156 267.367188 -290.910156 L 243.691406 -311.425781 L 266.269531 -329.488281 C 269.894531 -332.386719 273.824219 -337.648438 278.058594 -345.269531 C 281.972656 -352.320312 283.933594 -362.027344 283.933594 -374.390625 C 283.933594 -387.484375 279.28125 -398.449219 269.976562 -407.289062 C 260.441406 -416.34375 244.367188 -420.875 221.742188 -420.875 Z M 221.742188 -452.28125 C 252.726562 -452.28125 276.015625 -444.875 291.609375 -430.0625 C 307.429688 -415.03125 315.339844 -396.472656 315.339844 -374.390625 C 315.339844 -356.601562 312.066406 -341.808594 305.511719 -330.015625 C 299.277344 -318.789062 292.734375 -310.4375 285.890625 -304.960938 L 278.039062 -298.679688 L 268.230469 -310.945312 L 278.515625 -322.8125 L 287.9375 -314.644531 C 291.265625 -311.757812 298.515625 -310.316406 309.6875 -310.316406 C 324.222656 -310.316406 335.371094 -314.71875 343.132812 -323.527344 C 351.40625 -332.914062 355.542969 -346.515625 355.542969 -364.339844 C 355.542969 -381.691406 350.46875 -396.90625 340.3125 -409.988281 C 329.667969 -423.699219 314.433594 -434.628906 294.605469 -442.785156 C 274.113281 -451.210938 250.035156 -455.421875 222.371094 -455.421875 C 188.429688 -455.421875 160.109375 -449.703125 137.414062 -438.257812 C 115.0625 -426.988281 98.164062 -412.40625 86.726562 -394.511719 C 75.394531 -376.78125 69.726562 -357.71875 69.726562 -337.328125 C 69.726562 -317.605469 74.429688 -299.875 83.835938 -284.136719 C 93.316406 -268.277344 110.050781 -253.492188 134.039062 -239.785156 L 201.148438 -201.523438 C 224.101562 -188.671875 240.648438 -175.238281 250.796875 -161.226562 C 261.582031 -146.335938 266.972656 -129.234375 266.972656 -109.929688 C 266.972656 -84.78125 257.09375 -63.21875 237.339844 -45.234375 C 218.011719 -27.640625 192.082031 -18.84375 159.554688 -18.84375 C 131.238281 -18.84375 109.09375 -26.058594 93.121094 -40.484375 C 76.6875 -55.328125 68.46875 -74.496094 68.46875 -97.996094 C 68.46875 -111.292969 70.882812 -122.902344 75.707031 -132.816406 C 80.054688 -141.757812 84.4375 -148.824219 88.855469 -154.023438 L 94.195312 -160.304688 L 106.160156 -150.132812 L 93.714844 -140.558594 L 90.570312 -144.640625 C 89.996094 -145.390625 88 -146.589844 84.585938 -148.230469 C 81.085938 -149.917969 75.503906 -150.761719 67.84375 -150.761719 C 56.984375 -150.761719 47.628906 -146.988281 39.78125 -139.441406 C 32.105469 -132.058594 28.269531 -119.292969 28.269531 -101.136719 C 28.269531 -85.476562 33.125 -71.421875 42.84375 -58.976562 C 53.0625 -45.890625 67.664062 -35.476562 86.648438 -27.734375 C 106.316406 -19.714844 129.363281 -15.703125 155.785156 -15.703125 C 191.511719 -15.703125 221.390625 -21.46875 245.414062 -33.003906 C 268.976562 -44.3125 286.660156 -58.914062 298.464844 -76.804688 C 310.132812 -94.492188 315.96875 -113.28125 315.96875 -133.171875 C 315.96875 -152.484375 311.15625 -170.222656 301.535156 -186.382812 C 291.832031 -202.675781 274.742188 -217.898438 250.273438 -232.046875 L 170.4375 -278.5625 C 154.011719 -288.226562 141.351562 -300.097656 132.457031 -314.179688 C 123.300781 -328.675781 118.722656 -343.929688 118.722656 -359.941406 C 118.722656 -387.78125 128.714844 -410.285156 148.695312 -427.449219 C 167.96875 -444.003906 192.320312 -452.28125 221.742188 -452.28125 Z M 221.742188 -452.28125 "/></g></g></g><g fill="#f6f9f8" fill-opacity="1"><g transform="translate(186.234368, 598.611845)"><g><path d="M 221.75 -436.578125 C 196.195312 -436.578125 175.253906 -429.5625 158.921875 -415.53125 C 142.585938 -401.5 134.421875 -382.96875 134.421875 -359.9375 C 134.421875 -346.957031 138.191406 -334.5 145.734375 -322.5625 C 153.273438 -310.625 164.164062 -300.46875 178.40625 -292.09375 L 258.171875 -245.609375 C 284.972656 -230.117188 303.921875 -213.054688 315.015625 -194.421875 C 326.117188 -175.785156 331.671875 -155.367188 331.671875 -133.171875 C 331.671875 -110.140625 324.96875 -88.46875 311.5625 -68.15625 C 298.164062 -47.84375 278.378906 -31.40625 252.203125 -18.84375 C 226.035156 -6.28125 193.894531 0 155.78125 0 C 127.3125 0 102.289062 -4.394531 80.71875 -13.1875 C 59.15625 -21.988281 42.40625 -34.03125 30.46875 -49.3125 C 18.53125 -64.59375 12.5625 -81.867188 12.5625 -101.140625 C 12.5625 -123.753906 18.003906 -140.296875 28.890625 -150.765625 C 39.785156 -161.234375 52.769531 -166.46875 67.84375 -166.46875 C 77.894531 -166.46875 85.742188 -165.101562 91.390625 -162.375 C 97.046875 -159.65625 100.921875 -156.9375 103.015625 -154.21875 C 105.109375 -151.5 106.15625 -150.140625 106.15625 -150.140625 C 106.15625 -150.140625 104.375 -148.039062 100.8125 -143.84375 C 97.257812 -139.65625 93.597656 -133.6875 89.828125 -125.9375 C 86.054688 -118.195312 84.171875 -108.882812 84.171875 -98 C 84.171875 -79.15625 90.660156 -63.867188 103.640625 -52.140625 C 116.628906 -40.410156 135.269531 -34.546875 159.5625 -34.546875 C 188.03125 -34.546875 210.429688 -41.976562 226.765625 -56.84375 C 243.097656 -71.71875 251.265625 -89.414062 251.265625 -109.9375 C 251.265625 -125.84375 246.867188 -139.867188 238.078125 -152.015625 C 229.285156 -164.160156 214.421875 -176.097656 193.484375 -187.828125 L 126.265625 -226.140625 C 99.878906 -241.210938 81.238281 -257.859375 70.34375 -276.078125 C 59.457031 -294.296875 54.015625 -314.710938 54.015625 -337.328125 C 54.015625 -360.773438 60.503906 -382.65625 73.484375 -402.96875 C 86.472656 -423.28125 105.425781 -439.71875 130.34375 -452.28125 C 155.257812 -464.84375 185.9375 -471.125 222.375 -471.125 C 252.101562 -471.125 278.171875 -466.515625 300.578125 -457.296875 C 322.984375 -448.085938 340.363281 -435.523438 352.71875 -419.609375 C 365.070312 -403.703125 371.25 -385.28125 371.25 -364.34375 C 371.25 -342.5625 365.800781 -325.492188 354.90625 -313.140625 C 344.019531 -300.785156 328.945312 -294.609375 309.6875 -294.609375 C 294.613281 -294.609375 283.9375 -297.328125 277.65625 -302.765625 C 271.375 -308.210938 268.234375 -310.9375 268.234375 -310.9375 C 268.234375 -310.9375 270.847656 -313.03125 276.078125 -317.21875 C 281.316406 -321.414062 286.550781 -328.222656 291.78125 -337.640625 C 297.019531 -347.066406 299.640625 -359.316406 299.640625 -374.390625 C 299.640625 -391.984375 293.359375 -406.742188 280.796875 -418.671875 C 268.234375 -430.609375 248.550781 -436.578125 221.75 -436.578125 Z M 221.75 -436.578125 "/></g></g></g></svg>